name rise45.9887peak57.8056fall74.9286.mot
datacolumns 19
datarows 29
range 3.75498900000000 3.80165700000000
endheader
time	ground_force1_vx	ground_force1_vy	ground_force1_vz	ground_force1_px	ground_force1_py	ground_force1_pz	ground_force2_vx	ground_force2_vy	ground_force2_vz	ground_force2_px	ground_force2_py	ground_force2_pz	ground_torque1_x	ground_torque1_y	ground_torque1_z	ground_torque2_x	ground_torque2_y	ground_torque2_z	
3.75498900000000	-40.46633700000000	829.79430000000002	52.11925700000000	0.14647300000000	0.00000000000000	0.08720300000000	-2.35891800000000	20.62204300000000	4.03000500000000	0.00000000000000	0.00000000000000	0.00000000000000	0.00000000000000	22.51793800000000	0.00000000000000	0.00000000000000	1.55440900000000	0.00000000000000	
3.75665500000000	-41.07669200000000	828.71462099999997	52.24368100000000	0.14539300000000	0.00000000000000	0.08715100000000	-2.87500200000000	26.31817400000000	4.97124600000000	0.33573700000000	0.00000000000000	-0.07159100000000	0.00000000000000	22.46880100000000	0.00000000000000	0.00000000000000	3.38221100000000	0.00000000000000	
3.75832000000000	-41.69843000000000	827.49534600000004	52.34085100000000	0.14432200000000	0.00000000000000	0.08709500000000	-3.38315500000000	32.38198000000000	5.92318400000000	0.33929400000000	0.00000000000000	-0.07253600000000	0.00000000000000	22.41480200000000	0.00000000000000	0.00000000000000	4.05307300000000	0.00000000000000	
3.75998700000000	-42.33151100000000	826.13379899999995	52.40993500000000	0.14326200000000	0.00000000000000	0.08703500000000	-3.86439100000000	38.69183800000000	6.85674200000000	0.34277800000000	0.00000000000000	-0.07336300000000	0.00000000000000	22.35604900000000	0.00000000000000	0.00000000000000	4.71964600000000	0.00000000000000	
3.76165200000000	-42.97585300000000	824.62736900000004	52.45016000000000	0.14221400000000	0.00000000000000	0.08697000000000	-4.30107700000000	45.12861800000000	7.74486300000000	0.34620400000000	0.00000000000000	-0.07409100000000	0.00000000000000	22.29265900000000	0.00000000000000	0.00000000000000	5.36363200000000	0.00000000000000	
3.76331900000000	-43.63132700000000	822.97351000000003	52.46080600000000	0.14118000000000	0.00000000000000	0.08690000000000	-4.67803800000000	51.58459100000000	8.56432800000000	0.34958500000000	0.00000000000000	-0.07473400000000	0.00000000000000	22.22475100000000	0.00000000000000	0.00000000000000	5.96905300000000	0.00000000000000	
3.76499000000000	-44.29775800000000	821.16974600000003	52.44121500000000	0.14016200000000	0.00000000000000	0.08682500000000	-4.98333900000000	57.97033100000000	9.29705100000000	0.35292500000000	0.00000000000000	-0.07530700000000	0.00000000000000	22.15244900000000	0.00000000000000	0.00000000000000	6.52319200000000	0.00000000000000	
3.76665300000000	-44.97492100000000	819.21367199999997	52.39079200000000	0.13916200000000	0.00000000000000	0.08674500000000	-5.20869100000000	64.21914300000000	9.93077300000000	0.35623100000000	0.00000000000000	-0.07581900000000	0.00000000000000	22.07587500000000	0.00000000000000	0.00000000000000	7.01714200000000	0.00000000000000	
3.76831900000000	-45.66254100000000	817.10295599999995	52.30900500000000	0.13818000000000	0.00000000000000	0.08666000000000	-5.34951000000000	70.28892399999999	10.45917800000000	0.35950300000000	0.00000000000000	-0.07627900000000	0.00000000000000	21.99515500000000	0.00000000000000	0.00000000000000	7.44596200000000	0.00000000000000	
3.76998500000000	-46.36029200000000	814.83533899999998	52.19539000000000	0.13721900000000	0.00000000000000	0.08657000000000	-5.40466100000000	76.16170900000000	10.88150000000000	0.36274400000000	0.00000000000000	-0.07669500000000	0.00000000000000	21.91041200000000	0.00000000000000	0.00000000000000	7.80849400000000	0.00000000000000	
3.77165300000000	-47.06779500000000	812.40863999999999	52.04955300000000	0.13628000000000	0.00000000000000	0.08647400000000	-5.37597700000000	81.84130700000000	11.20174200000000	0.36595100000000	0.00000000000000	-0.07707100000000	0.00000000000000	21.82176600000000	0.00000000000000	0.00000000000000	8.10688700000000	0.00000000000000	
3.77331800000000	-47.78461700000000	809.82075999999995	51.87116900000000	0.13536300000000	0.00000000000000	0.08637200000000	-5.26761200000000	87.34955500000000	11.42763900000000	0.36912500000000	0.00000000000000	-0.07741500000000	0.00000000000000	21.72933500000000	0.00000000000000	0.00000000000000	8.34594000000000	0.00000000000000	
3.77499000000000	-48.51026900000000	807.06967799999995	51.65998500000000	0.13446900000000	0.00000000000000	0.08626600000000	-5.08533300000000	92.72175799999999	11.56949700000000	0.37226200000000	0.00000000000000	-0.07772900000000	0.00000000000000	21.63323000000000	0.00000000000000	0.00000000000000	8.53232800000000	0.00000000000000	
3.77665100000000	-49.24420600000000	804.15345900000000	51.41582600000000	0.13360100000000	0.00000000000000	0.08615300000000	-4.83580200000000	98.00181100000000	11.63901600000000	0.37536100000000	0.00000000000000	-0.07801800000000	0.00000000000000	21.53355800000000	0.00000000000000	0.00000000000000	8.67380700000000	0.00000000000000	
3.77832500000000	-49.98582500000000	801.07025199999998	51.13858700000000	0.13275700000000	0.00000000000000	0.08603500000000	-4.52591400000000	103.23747200000000	11.64821000000000	0.37841900000000	0.00000000000000	-0.07828600000000	0.00000000000000	21.43041800000000	0.00000000000000	0.00000000000000	8.77846200000000	0.00000000000000	
3.77998600000000	-50.73446300000000	797.81829800000003	50.82824200000000	0.13194000000000	0.00000000000000	0.08591100000000	-4.16224500000000	108.47613600000000	11.60848400000000	0.38143200000000	0.00000000000000	-0.07853500000000	0.00000000000000	21.32390300000000	0.00000000000000	0.00000000000000	8.85404600000000	0.00000000000000	
3.78165700000000	-51.48939600000000	794.39592400000004	50.48484200000000	0.13114900000000	0.00000000000000	0.08578200000000	-3.75061600000000	113.76134900000000	11.52991500000000	0.38439700000000	0.00000000000000	-0.07876800000000	0.00000000000000	21.21409600000000	0.00000000000000	0.00000000000000	8.90746000000000	0.00000000000000	
3.78331700000000	-52.24984100000000	790.80155500000001	50.10851300000000	0.13038400000000	0.00000000000000	0.08564700000000	-3.29580300000000	119.13020899999999	11.42076100000000	0.38731000000000	0.00000000000000	-0.07898700000000	0.00000000000000	21.10107100000000	0.00000000000000	0.00000000000000	8.94437200000000	0.00000000000000	
3.78498900000000	-53.01494900000000	787.03370900000004	49.69946100000000	0.12964700000000	0.00000000000000	0.08550600000000	-2.80137800000000	124.61168700000000	11.28719100000000	0.39016800000000	0.00000000000000	-0.07919400000000	0.00000000000000	20.98489400000000	0.00000000000000	0.00000000000000	8.96900400000000	0.00000000000000	
3.78665000000000	-53.78381000000000	783.09100300000000	49.25796900000000	0.12893600000000	0.00000000000000	0.08535900000000	-2.26967800000000	130.22585000000001	11.13321900000000	0.39296600000000	0.00000000000000	-0.07939100000000	0.00000000000000	20.86561900000000	0.00000000000000	0.00000000000000	8.98405100000000	0.00000000000000	
3.78832500000000	-54.55545000000000	778.97215600000004	48.78439800000000	0.12825200000000	0.00000000000000	0.08520800000000	-1.70187800000000	135.98385200000001	10.96081400000000	0.39570200000000	0.00000000000000	-0.07957900000000	0.00000000000000	20.74329100000000	0.00000000000000	0.00000000000000	8.99073800000000	0.00000000000000	
3.78998300000000	-55.32882900000000	774.67599199999995	48.27918500000000	0.12759400000000	0.00000000000000	0.08505000000000	-1.09814000000000	141.88858400000001	10.77014000000000	0.39837100000000	0.00000000000000	-0.07976100000000	0.00000000000000	20.61794400000000	0.00000000000000	0.00000000000000	8.98896500000000	0.00000000000000	
3.79165800000000	-56.10284300000000	770.20144100000005	47.74284400000000	0.12696200000000	0.00000000000000	0.08488800000000	-0.45782400000000	147.93579099999999	10.55988600000000	0.40096900000000	0.00000000000000	-0.07993700000000	0.00000000000000	20.48960200000000	0.00000000000000	0.00000000000000	8.97753900000000	0.00000000000000	
3.79332300000000	-56.87632200000000	765.54754800000001	47.17596600000000	0.12635500000000	0.00000000000000	0.08472000000000	0.22027900000000	154.11549500000001	10.32764800000000	0.40349300000000	0.00000000000000	-0.08010800000000	0.00000000000000	20.35827800000000	0.00000000000000	0.00000000000000	8.95443500000000	0.00000000000000	
3.79498800000000	-57.64803300000000	760.71347300000002	46.57921400000000	0.12577200000000	0.00000000000000	0.08454700000000	0.93771000000000	160.41356700000000	10.07032400000000	0.40593900000000	0.00000000000000	-0.08027600000000	0.00000000000000	20.22397500000000	0.00000000000000	0.00000000000000	8.91708200000000	0.00000000000000	
3.79665800000000	-58.41667700000000	755.69850099999996	45.95332600000000	0.12521300000000	0.00000000000000	0.08436900000000	1.69610600000000	166.81329199999999	9.78448400000000	0.40830400000000	0.00000000000000	-0.08044100000000	0.00000000000000	20.08668900000000	0.00000000000000	0.00000000000000	8.86263600000000	0.00000000000000	
3.79832000000000	-59.18089100000000	750.50203999999997	45.29911200000000	0.12467600000000	0.00000000000000	0.08418700000000	2.49700900000000	173.29682399999999	9.46670900000000	0.41058400000000	0.00000000000000	-0.08060500000000	0.00000000000000	19.94640300000000	0.00000000000000	0.00000000000000	8.78822700000000	0.00000000000000	
3.79999100000000	-59.93925200000000	745.12363700000003	44.61745000000000	0.12416000000000	0.00000000000000	0.08399900000000	3.34169400000000	179.84644100000000	9.11385800000000	0.41277500000000	0.00000000000000	-0.08076700000000	0.00000000000000	19.80309500000000	0.00000000000000	0.00000000000000	8.69117300000000	0.00000000000000	
3.80165700000000	-60.69027200000000	739.56297800000004	43.90928700000000	0.12366300000000	0.00000000000000	0.08380800000000	4.23105400000000	186.44554500000001	8.72327400000000	0.41487400000000	0.00000000000000	-0.08092900000000	0.00000000000000	19.65673400000000	0.00000000000000	0.00000000000000	8.56913700000000	0.00000000000000	
